HIERARCHY
ROOT hip
{
	OFFSET 0.000000 0.000000 0.000000 
	CHANNELS 6 Xposition Yposition Zposition Zrotation Xrotation Yrotation
	JOINT abdomen
	{
		OFFSET 0.000000 3.402643 0.000000 
		CHANNELS 3 Zrotation Xrotation Yrotation
		JOINT chest
		{
			OFFSET 0.000000 8.438565 -0.680529 
			CHANNELS 3 Zrotation Xrotation Yrotation
			JOINT neck
			{
				OFFSET 0.000000 10.207942 -0.272212 
				CHANNELS 3 Zrotation Xrotation Yrotation
				JOINT head
				{
					OFFSET 0.000000 3.130431 0.000000 
					CHANNELS 3 Zrotation Xrotation Yrotation
					End Site
					{
						OFFSET 0.000000 3.130435 0.000000 
					}
				}
			}
			JOINT lCollar
			{
				OFFSET 3.470700 6.669187 -0.816635 
				CHANNELS 3 Zrotation Xrotation Yrotation
				JOINT lShldr
				{
					OFFSET 3.198488 0.000000 0.000000 
					CHANNELS 3 Zrotation Xrotation Yrotation
					JOINT lForeArm
					{
						OFFSET 10.139888 0.000000 0.000000 
						CHANNELS 3 Zrotation Xrotation Yrotation
						JOINT lHand
						{
							OFFSET 8.370511 0.000000 0.000000 
							CHANNELS 3 Zrotation Xrotation Yrotation
							End Site
							{
								OFFSET 4.083176 0.000000 0.000000 
							}
						}
					}
				}
			}
			JOINT rCollar
			{
				OFFSET -3.470700 6.669187 -0.816635 
				CHANNELS 3 Zrotation Xrotation Yrotation
				JOINT rShldr
				{
					OFFSET -3.198488 0.000000 0.000000 
					CHANNELS 3 Zrotation Xrotation Yrotation
					JOINT rForeArm
					{
						OFFSET -10.139888 0.000000 0.000000 
						CHANNELS 3 Zrotation Xrotation Yrotation
						JOINT rHand
						{
							OFFSET -8.370511 0.000000 0.000000 
							CHANNELS 3 Zrotation Xrotation Yrotation
							End Site
							{
								OFFSET -4.083176 0.000000 0.000000 
							}
						}
					}
				}
			}
		}
	}
	JOINT lThigh
	{
		OFFSET 5.308129 -1.633274 1.361059 
		CHANNELS 3 Zrotation Xrotation Yrotation
		JOINT lShin
		{
			OFFSET -2.041588 -20.007561 0.000000 
			CHANNELS 3 Zrotation Xrotation Yrotation
			JOINT lFoot
			{
				OFFSET 0.000000 -19.190928 -1.224953 
				CHANNELS 3 Zrotation Xrotation Yrotation
				End Site
				{
					OFFSET 0.000000 -2.449906 4.627600 
				}
			}
		}
	}
	JOINT rThigh
	{
		OFFSET -5.308129 -1.633274 1.361059 
		CHANNELS 3 Zrotation Xrotation Yrotation
		JOINT rShin
		{
			OFFSET 2.041588 -20.007561 0.000000 
			CHANNELS 3 Zrotation Xrotation Yrotation
			JOINT rFoot
			{
				OFFSET 0.000000 -19.190928 -1.224953 
				CHANNELS 3 Zrotation Xrotation Yrotation
				End Site
				{
					OFFSET 0.000000 -2.449906 4.627600 
				}
			}
		}
	}
}
MOTION
Frames: 8
Frame Time: 0.016667
4.402380 42.079906 -3.577250 -11.005900 2.841790 9.198190 -2.594210 16.093399 0.737423 -1.616120 -17.978300 -0.236074 1.198920 5.378590 -7.919150 5.170310 6.655010 -4.432870 -1.998780 -0.069785 1.998780 -57.068401 -43.549599 6.391500 1.041540 -1.283940 -28.467199 -0.038589 46.852001 -0.009014 1.998780 -0.069785 -1.998780 83.790100 -11.439300 0.999309 0.682864 0.162993 30.168800 -0.155617 72.714798 0.241791 5.927215 -27.144400 14.190100 2.599310 38.375000 1.345160 -1.125360 -3.514940 9.715460 10.540100 -10.714900 -16.804001 -2.419540 41.794601 -1.609520 -1.768630 9.931820 16.949800 
4.482180 41.947506 -3.973440 -10.918000 3.222650 8.836170 -2.572020 15.976500 0.553976 -1.543550 -18.124001 -0.585305 1.087810 3.764420 -9.208060 5.373720 6.029120 -5.081600 -1.998780 -0.069785 1.998780 -60.141399 -39.911598 6.888580 1.062350 -1.299670 -29.452700 -0.042221 42.096001 -0.003527 1.998780 -0.069785 -1.998780 84.665001 -11.013500 1.832540 0.685368 0.164111 30.246901 -0.143546 72.108902 0.229045 5.759904 -27.666401 16.076000 2.597760 37.766701 1.338300 -1.267230 -3.333670 9.660520 11.476100 -9.555940 -15.789100 -2.443830 37.986099 -1.514950 -2.217580 11.865600 16.870300 
4.570350 41.713604 -4.401750 -10.683600 3.681640 8.554020 -2.600770 15.878500 0.407960 -1.483450 -18.249500 -0.914517 0.865703 1.950870 -10.563900 5.566870 5.373920 -5.740260 -1.998780 -0.069785 1.998780 -63.689301 -36.239799 6.837000 1.082270 -1.315280 -30.408899 -0.053117 37.525002 0.012807 1.998780 -0.069785 -1.998780 85.324097 -10.341000 2.789820 0.688183 0.165374 30.334700 -0.136018 71.708900 0.221070 5.299709 -28.188400 16.365299 2.563760 37.268501 1.354850 -1.204440 -4.400980 8.741940 12.144699 -8.314070 -14.090500 -2.474480 35.087502 -1.413320 0.119498 4.538500 16.151800 
4.650220 41.402805 -4.862260 -10.087900 4.042970 8.436600 -2.486980 15.723900 0.172813 -1.491280 -18.305401 -1.325920 0.665997 0.239980 -11.828900 5.799310 4.796620 -6.342200 -1.998780 -0.069785 1.998780 -67.449303 -32.603298 6.552860 1.105120 -1.333860 -31.521299 -0.060811 33.561001 0.025395 1.998780 -0.069785 -1.998780 85.691002 -9.244670 3.935200 0.688811 0.165656 30.354300 -0.130894 71.425903 0.215629 4.465830 -28.876400 15.193900 2.535910 37.389099 1.395480 -1.199280 -5.664630 6.988720 12.273199 -7.290510 -12.401400 -2.520480 32.804401 -1.304440 2.783380 -4.999580 15.200300 
4.700490 41.002804 -5.364560 -9.404300 4.140620 8.358980 -2.292210 15.541100 -0.100591 -1.499690 -18.203800 -1.766890 0.505004 -1.432510 -13.065700 6.031780 4.287600 -6.914820 -1.998780 -0.069785 1.998780 -71.246399 -29.041300 5.885160 1.130140 -1.355070 -32.760502 -0.065135 30.952999 0.033037 1.998780 -0.069785 -1.998780 85.910797 -7.996870 5.408750 0.680672 0.162017 30.100500 -0.135485 71.679901 0.220504 3.787380 -29.642900 14.125000 2.521840 38.116402 1.419660 -1.461840 -5.952610 4.583600 12.058600 -6.837490 -10.378900 -2.541940 31.219999 -1.235530 3.368340 -7.927770 13.998600 
4.750420 40.725105 -5.905140 -8.740240 4.003900 8.339550 -2.187830 15.298300 -0.332364 -1.541720 -17.964800 -2.164070 0.367740 -2.922450 -14.371200 6.244930 3.876280 -7.515410 -1.998780 -0.069785 1.998780 -74.871101 -25.458599 4.775380 1.153740 -1.375950 -33.951000 -0.066153 30.289000 0.034915 1.998780 -0.069785 -1.998780 86.130501 -7.035340 7.116860 0.662782 0.154167 29.544300 -0.161149 72.978798 0.247616 3.375360 -30.338900 13.586200 2.478040 39.111198 1.485710 -1.795690 -5.286460 1.917370 11.801501 -6.592440 -9.280620 -2.542090 30.541901 -1.221260 3.611620 -11.356200 11.850000 
4.809310 40.542904 -6.474000 -7.949210 3.955080 8.437390 -2.028640 14.685000 -0.602549 -1.649770 -17.851700 -2.582850 1.083320 -3.975540 -15.608100 6.801970 3.736280 -8.140170 -1.998780 -0.069785 1.998780 -78.112198 -21.663700 3.754410 1.177660 -1.398020 -35.180401 -0.064444 31.393000 0.031781 1.998780 -0.069785 -1.998780 86.218597 -6.349050 8.648440 0.643551 0.145959 28.948999 -0.217223 75.253799 0.306214 3.016940 -31.399000 13.784900 2.448090 40.762501 1.561070 -2.071110 -3.760400 -0.501175 11.395501 -6.548890 -8.493300 -2.537460 29.815201 -1.210830 3.227980 -13.993200 8.879190 
4.870170 40.446606 -7.046670 -6.533200 4.199220 8.622820 -1.598020 13.820400 -0.958563 -1.948820 -17.912399 -3.045160 2.459490 -4.918630 -16.730900 7.663010 3.710940 -8.737350 -1.998780 -0.069785 1.998780 -80.815399 -17.249001 3.050050 1.208790 -1.428240 -36.819698 -0.061341 33.257999 0.026306 1.998780 -0.069785 -1.998780 85.676697 -4.893880 9.651520 0.633111 0.141601 28.626900 -0.225169 76.796799 0.314394 2.035030 -32.535400 14.226400 2.367700 42.180500 1.662270 -2.150630 -1.186230 -2.914780 10.208100 -7.154710 -7.729330 -2.565420 29.812201 -1.183740 2.347270 -15.988500 5.597870 
